<?xml version="1.0" ?><svg style="enable-background:new 0 0 512 512;" version="1.1" viewBox="0 0 512 512" xml:space="preserve" xmlns="http://www.w3.org/2000/svg" ><style type="text/css">
	.st0{fill:inherit;}
	.st1{fill:none;stroke:inherit;stroke-width:32;stroke-linecap:round;stroke-linejoin:round;stroke-miterlimit:10;}
</style><g id="Layer_1"/><g id="Layer_2"><g><g><g><circle class="st0" cx="256" cy="256" r="126.66"/></g></g><g><g><path class="st0" d="M256,97.92c-8.22,0-14.88-6.66-14.88-14.88V58.38c0-8.22,6.66-14.88,14.88-14.88s14.88,6.66,14.88,14.88      v24.66C270.88,91.26,264.22,97.92,256,97.92z"/></g></g><g><g><path class="st0" d="M378.3,148.58c-3.81,0-7.62-1.45-10.52-4.36c-5.81-5.81-5.81-15.23,0-21.04l17.44-17.44      c5.81-5.81,15.23-5.81,21.04,0c5.81,5.81,5.81,15.23,0,21.04l-17.44,17.44C385.91,147.13,382.11,148.58,378.3,148.58z"/></g></g><g><g><path class="st0" d="M453.62,270.88h-24.66c-8.22,0-14.88-6.66-14.88-14.88s6.66-14.88,14.88-14.88h24.66      c8.22,0,14.88,6.66,14.88,14.88S461.84,270.88,453.62,270.88z"/></g></g><g><g><path class="st0" d="M395.74,410.62c-3.81,0-7.62-1.45-10.52-4.36l-17.44-17.44c-5.81-5.81-5.81-15.23,0-21.04      c5.81-5.81,15.23-5.81,21.04,0l17.44,17.44c5.81,5.81,5.81,15.23,0,21.04C403.35,409.17,399.55,410.62,395.74,410.62z"/></g></g><g><g><path class="st0" d="M256,468.5c-8.22,0-14.88-6.66-14.88-14.88v-24.66c0-8.22,6.66-14.88,14.88-14.88s14.88,6.66,14.88,14.88      v24.66C270.88,461.84,264.22,468.5,256,468.5z"/></g></g><g><g><path class="st0" d="M116.26,410.62c-3.81,0-7.62-1.45-10.52-4.36c-5.81-5.81-5.81-15.23,0-21.04l17.44-17.44      c5.81-5.81,15.23-5.81,21.04,0c5.81,5.81,5.81,15.23,0,21.04l-17.44,17.44C123.88,409.17,120.07,410.62,116.26,410.62z"/></g></g><g><g><path class="st0" d="M83.04,270.88H58.38c-8.22,0-14.88-6.66-14.88-14.88s6.66-14.88,14.88-14.88h24.66      c8.22,0,14.88,6.66,14.88,14.88S91.26,270.88,83.04,270.88z"/></g></g><g><g><path class="st0" d="M133.7,148.58c-3.81,0-7.62-1.45-10.52-4.36l-17.44-17.44c-5.81-5.81-5.81-15.23,0-21.04      c5.81-5.81,15.23-5.81,21.04,0l17.44,17.44c5.81,5.81,5.81,15.23,0,21.04C141.32,147.13,137.51,148.58,133.7,148.58z"/></g></g></g></g></svg>